<?xml version="1.0" encoding="utf-8"?>
<!-- Generator: Adobe Illustrator 17.1.0, SVG Export Plug-In . SVG Version: 6.00 Build 0)  -->
<!DOCTYPE svg PUBLIC "-//W3C//DTD SVG 1.1//EN" "http://www.w3.org/Graphics/SVG/1.1/DTD/svg11.dtd">
<svg version="1.1" id="Layer_1" xmlns="http://www.w3.org/2000/svg" xmlns:xlink="http://www.w3.org/1999/xlink" x="0px" y="0px"
	 width="429.7px" height="80px" viewBox="35.1 210.1 429.7 80" enable-background="new 35.1 210.1 429.7 80" xml:space="preserve">
<path fill="#010101" d="M50.4,233.6l-5-10.2c-1.2-2.5-2.5-5.2-2.8-6.5l0,0c0.2,1.8,0.2,4.2,0.2,6l0.2,10.8h-3.8v-22h4.2l5.2,10.8
	c1,2,2,4.8,2.2,5.8l0,0c0-1-0.2-4.2-0.2-6.2v-10h3.5v22h-4V233.6z"/>
<path fill="#010101" d="M64.1,219.6c-2,0-3,1.5-3,4.2h6C67.1,221.4,65.9,219.6,64.1,219.6 M61.1,226.4v0.2c0,2.2,0.8,4.5,4,4.5
	c1.5,0,2.8-0.5,4-1.5l1.2,2.2c-1.8,1.5-3.8,2.2-5.8,2.2c-4.5,0-7.5-3.2-7.5-8.5c0-2.8,0.5-4.8,2-6.2c1.2-1.5,3-2.2,5-2.2
	c1.5,0,3,0.5,4.5,1.8s2,3.2,2,7v0.8h-9.5V226.4z"/>
<path fill="#010101" d="M88.6,233.6h-3.2l-2-7.5c-0.5-2-1-4.5-1-4.5l0,0c0,0-0.2,1.5-1,4.5l-2,7.2h-3.2l-4.5-15.8l3.5-0.5l1.8,8
	c0.5,2,0.8,4.2,0.8,4.2l0,0c0,0,0.2-2,1-4.2l2-7.5h3.5l1.8,7.2c0.8,2.5,1,4.5,1,4.5l0,0c0,0,0.5-2.5,0.7-4.2l1.8-7.5h3.8L88.6,233.6
	z"/>
<path fill="#010101" d="M108.4,214.4h-2v7h2c2,0,3-0.2,3.5-1c0.5-0.5,1-1.5,1-2.8C112.9,215.6,111.6,214.4,108.4,214.4 M113.4,233.6
	l-1.8-3.5c-1.5-2.8-2.5-4.2-3.8-5.5c-0.5-0.5-0.8-0.8-1.5-0.8v9.5h-3.8v-21.8h6.8c5,0,7.3,2.8,7.3,6.2c0,3.2-2,6-5.5,6
	c0.8,0.5,2.2,2.5,3.5,4.5l3.3,5.2H113.4z"/>
<path fill="#010101" d="M126.1,219.6c-2,0-3,1.5-3,4.2h6C128.9,221.4,127.9,219.6,126.1,219.6 M122.9,226.4v0.2c0,2.2,0.7,4.5,4,4.5
	c1.5,0,2.7-0.5,4-1.5l1.2,2.2c-1.8,1.5-3.8,2.2-5.7,2.2c-4.5,0-7.5-3.2-7.5-8.5c0-2.8,0.5-4.8,2-6.2c1.2-1.5,3-2.2,5-2.2
	c1.5,0,3,0.5,4.5,1.8c1.5,1.2,2.3,3,2.3,7v0.8h-9.8V226.4z"/>
<path fill="#010101" d="M138.6,233.9c-3.5,0-3.5-3-3.5-4.5v-13.8c0-2.2,0-3.5-0.2-4.8l3.5-0.8c0.2,1,0.2,2.2,0.2,4.5v13.8
	c0,2.2,0,2.5,0.2,3c0.2,0.2,0.8,0.5,1.2,0.2l0.5,2.2C140.1,233.9,139.4,233.9,138.6,233.9"/>
<path fill="#010101" d="M143.9,233.6v-16l3.5-0.8v16.5h-3.5V233.6z M145.6,215.1c-1.2,0-2.2-1-2.2-2.2s1-2.2,2.2-2.2s2.2,1,2.2,2.2
	S146.9,215.1,145.6,215.1"/>
<path fill="#010101" d="M157.9,234.1c-4.5,0-6.8-3-6.8-8.2c0-5.8,3.5-8.8,7-8.8c1.8,0,3,0.5,4.5,1.8l-1.8,2.2
	c-1-0.8-1.8-1.2-2.7-1.2c-1,0-2,0.5-2.5,1.8c-0.5,1-0.8,2.5-0.8,4.5c0,2.2,0.2,3.5,1,4.5c0.5,0.5,1.2,1,2.2,1s2.2-0.5,3.2-1.5
	l1.8,2.2C161.4,233.4,159.9,234.1,157.9,234.1"/>
<path fill="#010101" d="M170.6,227.4c0,0-0.2,0-0.5,0h-0.5v1.5h0.5c0.5,0,0.8,0,0.8-0.2c0.2-0.2,0.2-0.2,0.2-0.5
	C171.1,227.6,170.9,227.4,170.6,227.4 M171.4,231.9c-0.2-0.2-0.2-0.5-0.5-1c-0.5-1-0.8-1.2-1-1.2c0,0,0,0-0.2,0v2.2h-1v-5.5h2
	c1,0,1.5,0.8,1.5,1.5s-0.5,1.5-1.2,1.5l0.2,0.2c0.5,0.5,1.5,2.2,1.5,2.2H171.4z M170.4,225.4c-2,0-3.8,1.8-3.8,3.8
	c0,2.2,1.8,4,3.8,4s3.8-1.8,3.8-4S172.4,225.4,170.4,225.4 M170.4,233.9c-2.8,0-4.8-2.2-4.8-4.8c0-2.8,2.2-4.8,4.8-4.8
	c2.8,0,4.8,2.2,4.8,4.8C175.1,231.9,172.9,233.9,170.4,233.9"/>
<path fill="#7B5BA6" d="M458.1,240.4h1l2.5,3.8l2.2-3.8h1v6.8h-1v-5l-2.5,3.5h-0.3l-2.2-3.5v5h-1v-6.8H458.1z M453.6,241.1h-2.2v-1
	h5.2v1h-2.2v5.8h-1v-5.8H453.6z"/>
<path fill="#7B5BA6" d="M35.1,281.9l6.5-7.8c4.2,3.8,9,6,14.5,6c4.5,0,7-1.8,7-4.8v-0.2c0-2.8-1.8-4.2-10-6.2
	c-10-2.5-16.2-5.2-16.2-15v-0.2c0-9,7.2-14.8,17.2-14.8c7.2,0,13.2,2.2,18.2,6.2l-5.5,8.2c-4.2-3-8.8-4.8-12.8-4.8
	c-4.2,0-6.2,2-6.2,4.2v0.2c0,3.2,2,4.2,10.5,6.5c10,2.5,15.5,6.2,15.5,14.8v0.2c0,9.8-7.5,15.2-18,15.2
	C48.6,289.6,41.1,287.1,35.1,281.9"/>
<polygon fill="#7B5BA6" points="91.4,269.6 72.4,239.9 85.1,239.9 96.9,259.6 108.6,239.9 121.1,239.9 102.1,269.4 102.1,288.9 
	91.4,288.9 "/>
<polygon fill="#7B5BA6" points="122.6,239.9 132.4,239.9 155.6,270.1 155.6,239.9 166.1,239.9 166.1,288.9 156.9,288.9 133.1,257.6 
	133.1,288.9 122.6,288.9 "/>
<polygon fill="#7B5BA6" points="185.1,249.9 170.4,249.9 170.4,239.9 210.9,239.9 210.9,249.9 196.1,249.9 196.1,288.9 185.1,288.9 
	"/>
<polygon fill="#7B5BA6" points="215.1,239.9 226.1,239.9 226.1,259.4 245.9,259.4 245.9,239.9 256.9,239.9 256.9,288.9 245.9,288.9 
	245.9,269.1 226.1,269.1 226.1,288.9 215.1,288.9 "/>
<polygon fill="#7B5BA6" points="261.6,239.9 298.6,239.9 298.6,249.4 272.4,249.4 272.4,259.4 295.4,259.4 295.4,269.1 272.4,269.1 
	272.4,279.4 299.1,279.4 299.1,288.9 261.6,288.9 "/>
<polygon fill="#7B5BA6" points="317.4,249.9 302.4,249.9 302.4,239.9 343.1,239.9 343.1,249.9 328.1,249.9 328.1,288.9 317.4,288.9 
	"/>
<rect x="347.4" y="239.9" fill="#7B5BA6" width="10.7" height="49.2"/>
<path fill="#7B5BA6" d="M362.4,264.6L362.4,264.6c0-14,10.5-25.5,25.8-25.5c9.2,0,14.7,3,19.5,7.5l-7,8c-3.8-3.5-7.8-5.5-12.5-5.5
	c-8.2,0-14.2,7-14.2,15.2v0.2c0,8.5,5.8,15.5,14.2,15.5c5.5,0,9-2.2,13-5.8l7,7c-5,5.5-10.8,8.8-20.3,8.8
	C373.1,289.9,362.4,278.6,362.4,264.6"/>
<path fill="#7B5BA6" d="M410.4,281.9l6.5-7.8c4.5,3.8,9,6,14.7,6c4.5,0,7-1.8,7-4.8v-0.2c0-2.8-1.8-4.2-10-6.2
	c-10-2.5-16.2-5.2-16.2-15v-0.2c0-9,7.2-14.8,17.2-14.8c7.2,0,13.2,2.2,18.2,6.2l-5.5,8.2c-4.2-3-8.8-4.8-12.8-4.8
	c-4.2,0-6.2,2-6.2,4.2v0.2c0,3.2,2,4.2,10.5,6.5c10,2.5,15.5,6.2,15.5,14.8v0.2c0,9.8-7.5,15.2-18,15.2
	C423.9,289.6,416.4,287.1,410.4,281.9"/>
</svg>
